<svg xmlns="http://www.w3.org/2000/svg" width="980" height="386" viewBox="0 0 980 386" role="img" aria-labelledby="title desc">
<title id="title">M38 Track B product redeploy latency check</title>
<desc id="desc">Bar chart comparing M37 final and M38 redeployed TypeDuck product typing-row median latency.</desc>
<rect width="100%" height="100%" fill="#fbfaf7"/>
<text x="34" y="42" font-family="Segoe UI, Arial, sans-serif" font-size="24" font-weight="700" fill="#202124">M38 Track B product redeploy latency check</text>
<text x="34" y="70" font-family="Segoe UI, Arial, sans-serif" font-size="14" fill="#5f6368">jyut6ping3_mobile median native typing rows after rerunning M38 with -DeployProductBeforeBenchmark.</text>
<rect x="190" y="84" width="14" height="14" fill="#2f6f73"/><text x="210" y="96" font-family="Segoe UI, Arial, sans-serif" font-size="13" fill="#3c4043">M37 final</text>
<rect x="360" y="84" width="14" height="14" fill="#4b6b9b"/><text x="380" y="96" font-family="Segoe UI, Arial, sans-serif" font-size="13" fill="#3c4043">M38 redeploy check</text>

<text x="34" y="120" font-family="Segoe UI, Arial, sans-serif" font-size="14" fill="#202124">hai</text>
<rect x="190" y="102" width="640" height="16" rx="3" fill="#2f6f73"/>
<text x="838" y="115" font-family="Segoe UI, Arial, sans-serif" font-size="12" fill="#3c4043">8.337 ms</text>
<rect x="190" y="125" width="599" height="16" rx="3" fill="#4b6b9b"/>
<text x="797" y="138" font-family="Segoe UI, Arial, sans-serif" font-size="12" fill="#3c4043">7.803 ms</text>
<line x1="190" x2="830" y1="149" y2="149" stroke="#e4e1dc"/>

<text x="34" y="178" font-family="Segoe UI, Arial, sans-serif" font-size="14" fill="#202124">ngohaig</text>
<rect x="190" y="160" width="143" height="16" rx="3" fill="#2f6f73"/>
<text x="341" y="173" font-family="Segoe UI, Arial, sans-serif" font-size="12" fill="#3c4043">1.862 ms</text>
<rect x="190" y="183" width="126" height="16" rx="3" fill="#4b6b9b"/>
<text x="324" y="196" font-family="Segoe UI, Arial, sans-serif" font-size="12" fill="#3c4043">1.644 ms</text>
<line x1="190" x2="830" y1="207" y2="207" stroke="#e4e1dc"/>

<text x="34" y="236" font-family="Segoe UI, Arial, sans-serif" font-size="14" fill="#202124">loengjathau</text>
<rect x="190" y="218" width="166" height="16" rx="3" fill="#2f6f73"/>
<text x="364" y="231" font-family="Segoe UI, Arial, sans-serif" font-size="12" fill="#3c4043">2.165 ms</text>
<rect x="190" y="241" width="144" height="16" rx="3" fill="#4b6b9b"/>
<text x="342" y="254" font-family="Segoe UI, Arial, sans-serif" font-size="12" fill="#3c4043">1.876 ms</text>
<line x1="190" x2="830" y1="265" y2="265" stroke="#e4e1dc"/>

<text x="34" y="294" font-family="Segoe UI, Arial, sans-serif" font-size="14" fill="#202124">jigaajiusihaa</text>
<rect x="190" y="276" width="245" height="16" rx="3" fill="#2f6f73"/>
<text x="443" y="289" font-family="Segoe UI, Arial, sans-serif" font-size="12" fill="#3c4043">3.189 ms</text>
<rect x="190" y="299" width="228" height="16" rx="3" fill="#4b6b9b"/>
<text x="426" y="312" font-family="Segoe UI, Arial, sans-serif" font-size="12" fill="#3c4043">2.969 ms</text>
<line x1="190" x2="830" y1="323" y2="323" stroke="#e4e1dc"/>

<text x="190" y="354" font-family="Segoe UI, Arial, sans-serif" font-size="12" fill="#5f6368">Source: M37 phase-3-final-native and M38 phase-5-final-native-product-redeploy-check Track B summary.csv.</text>
</svg>
