<svg xmlns="http://www.w3.org/2000/svg" width="980" height="444" viewBox="0 0 980 444">
<rect width="100%" height="100%" fill="#fbfaf7"/>
<text x="34" y="42" font-family="Segoe UI, Arial, sans-serif" font-size="24" font-weight="700" fill="#202124">M36 Track A fair latency gap</text>
<text x="34" y="70" font-family="Segoe UI, Arial, sans-serif" font-size="14" fill="#5f6368">luna_pinyin final native in-process comparison, Yune versus librime 1.17.0</text>
<rect x="190" y="84" width="14" height="14" fill="#4b6b9b"/><text x="210" y="96" font-family="Segoe UI, Arial, sans-serif" font-size="13" fill="#3c4043">Yune</text>
<rect x="360" y="84" width="14" height="14" fill="#7c7f42"/><text x="380" y="96" font-family="Segoe UI, Arial, sans-serif" font-size="13" fill="#3c4043">librime 1.17.0</text>
<text x="34" y="120" font-family="Segoe UI, Arial, sans-serif" font-size="14" fill="#202124">startup</text>
<rect x="190" y="102" width="640" height="16" rx="3" fill="#4b6b9b"/>
<text x="838" y="115" font-family="Segoe UI, Arial, sans-serif" font-size="12" fill="#3c4043">48.1 ms</text>
<rect x="190" y="125" width="293" height="16" rx="3" fill="#7c7f42"/>
<text x="491" y="138" font-family="Segoe UI, Arial, sans-serif" font-size="12" fill="#3c4043">22.1 ms</text>
<line x1="190" x2="830" y1="149" y2="149" stroke="#e4e1dc"/>
<text x="34" y="178" font-family="Segoe UI, Arial, sans-serif" font-size="14" fill="#202124">session</text>
<rect x="190" y="160" width="626" height="16" rx="3" fill="#4b6b9b"/>
<text x="824" y="173" font-family="Segoe UI, Arial, sans-serif" font-size="12" fill="#3c4043">47.1 ms</text>
<rect x="190" y="183" width="303" height="16" rx="3" fill="#7c7f42"/>
<text x="501" y="196" font-family="Segoe UI, Arial, sans-serif" font-size="12" fill="#3c4043">22.9 ms</text>
<line x1="190" x2="830" y1="207" y2="207" stroke="#e4e1dc"/>
<text x="34" y="236" font-family="Segoe UI, Arial, sans-serif" font-size="14" fill="#202124">hao</text>
<rect x="190" y="218" width="54" height="16" rx="3" fill="#4b6b9b"/>
<text x="252" y="231" font-family="Segoe UI, Arial, sans-serif" font-size="12" fill="#3c4043">4.1 ms</text>
<rect x="190" y="241" width="2" height="16" rx="3" fill="#7c7f42"/>
<text x="200" y="254" font-family="Segoe UI, Arial, sans-serif" font-size="12" fill="#3c4043">12 us</text>
<line x1="190" x2="830" y1="265" y2="265" stroke="#e4e1dc"/>
<text x="34" y="294" font-family="Segoe UI, Arial, sans-serif" font-size="14" fill="#202124">ni</text>
<rect x="190" y="276" width="39" height="16" rx="3" fill="#4b6b9b"/>
<text x="237" y="289" font-family="Segoe UI, Arial, sans-serif" font-size="12" fill="#3c4043">3.0 ms</text>
<rect x="190" y="299" width="2" height="16" rx="3" fill="#7c7f42"/>
<text x="200" y="312" font-family="Segoe UI, Arial, sans-serif" font-size="12" fill="#3c4043">14 us</text>
<line x1="190" x2="830" y1="323" y2="323" stroke="#e4e1dc"/>
<text x="34" y="352" font-family="Segoe UI, Arial, sans-serif" font-size="14" fill="#202124">zhongguo</text>
<rect x="190" y="334" width="58" height="16" rx="3" fill="#4b6b9b"/>
<text x="256" y="347" font-family="Segoe UI, Arial, sans-serif" font-size="12" fill="#3c4043">4.4 ms</text>
<rect x="190" y="357" width="2" height="16" rx="3" fill="#7c7f42"/>
<text x="200" y="370" font-family="Segoe UI, Arial, sans-serif" font-size="12" fill="#3c4043">179 us</text>
<line x1="190" x2="830" y1="381" y2="381" stroke="#e4e1dc"/>
</svg>
